<svg width="120" height="98" viewBox="0 0 120 98" fill="none" xmlns="http://www.w3.org/2000/svg">
<path d="M101.531 33.771H84.1952C83.7007 30.928 82.7891 28.4095 81.4603 26.2154C80.1315 23.9905 78.4782 22.1054 76.5005 20.5603C74.5227 19.0152 72.2668 17.8563 69.7329 17.0838C67.2298 16.2803 64.5258 15.8786 61.621 15.8786C56.4603 15.8786 51.8868 17.1765 47.9004 19.7723C43.914 22.3372 40.7928 26.1073 38.5369 31.0825C36.2811 36.0269 35.1531 42.0683 35.1531 49.2068C35.1531 56.4688 36.2811 62.5875 38.5369 67.5628C40.8237 72.5071 43.9449 76.2463 47.9004 78.7803C51.8868 81.2834 56.4449 82.5349 61.5746 82.5349C64.4177 82.5349 67.0753 82.1641 69.5474 81.4225C72.0505 80.6499 74.291 79.522 76.2687 78.0386C78.2774 76.5553 79.9615 74.7321 81.3212 72.5689C82.7118 70.4058 83.6698 67.9336 84.1952 65.1524L101.531 65.2451C100.882 69.7568 99.4764 73.9904 97.3132 77.9459C95.1809 81.9014 92.3843 85.3934 88.9232 88.4218C85.4622 91.4194 81.4139 93.7679 76.7786 95.4676C72.1432 97.1363 66.998 97.9707 61.3429 97.9707C52.9992 97.9707 45.5518 96.0393 39.0005 92.1765C32.4492 88.3137 27.2885 82.7358 23.5184 75.4428C19.7483 68.1499 17.8633 59.4045 17.8633 49.2068C17.8633 38.9781 19.7638 30.2327 23.5648 22.9707C27.3658 15.6777 32.5419 10.0999 39.0932 6.23706C45.6445 2.37427 53.061 0.442871 61.3429 0.442871C66.6272 0.442871 71.5406 1.18453 76.0833 2.66784C80.6259 4.15115 84.6741 6.32977 88.2279 9.20369C91.7817 12.0467 94.702 15.5387 96.9887 19.6796C99.3064 23.7896 100.821 28.4867 101.531 33.771Z" fill="white"/>
<path d="M112.468 62.6948L30.5316 62.6948M112.468 35.7178L6.92676 35.7178" stroke="white" stroke-width="13.4885" stroke-linecap="round"/>
</svg>
